<?xml version="1.0" standalone="no"?>
<!DOCTYPE svg PUBLIC "-//W3C//DTD SVG 20010904//EN"
 "http://www.w3.org/TR/2001/REC-SVG-20010904/DTD/svg10.dtd">
<svg version="1.0" xmlns="http://www.w3.org/2000/svg"
 width="225.000000pt" height="225.000000pt" viewBox="0 0 225.000000 225.000000"
 preserveAspectRatio="xMidYMid meet">
<metadata>
Created by potrace 1.14, written by Peter Selinger 2001-2017
</metadata>
<g transform="translate(0.000000,225.000000) scale(0.100000,-0.100000)"
fill="#000000" stroke="none">
<path d="M1043 1605 c-173 -51 -300 -240 -308 -458 -8 -203 99 -404 251 -474
67 -31 80 -23 60 35 -19 53 -25 153 -13 211 10 50 84 214 117 261 51 71 74
214 49 302 -14 49 -69 123 -96 130 -11 3 -37 -1 -60 -7z"/>
<path d="M1230 1585 c0 -8 5 -23 10 -33 21 -36 38 -130 35 -193 -4 -68 -39
-172 -81 -239 -76 -123 -111 -236 -102 -328 6 -62 38 -141 58 -143 184 -18
373 208 386 461 10 203 -105 406 -269 475 -33 14 -37 14 -37 0z"/>
<path d="M545 1046 c9 -115 54 -249 109 -321 140 -182 370 -264 601 -214 77
17 205 83 261 136 103 95 174 248 183 389 1 8 43 11 136 11 l135 0 -3 -58 c-6
-103 -60 -155 -169 -166 -68 -6 -76 -12 -72 -46 1 -12 3 -26 3 -31 1 -13 123
0 167 19 48 20 90 59 115 106 17 34 25 117 20 214 l-1 30 -197 0 -198 -1 -3
-54 c-7 -137 -57 -254 -149 -345 -103 -102 -231 -157 -366 -157 -152 0 -330
98 -416 229 -56 84 -85 185 -90 313 -1 11 -11 16 -36 15 l-35 0 5 -69z"/>
</g>
</svg>
